# xmcd
#
# Track frame offsets:
#	150
#	11027
#	25280
#	37630
#	51722
#	66515
#	79602
#	93022
#	107810
#	119705
#	134170
#	148332
#	163695
#	178995
#	192240
#	205345
#	219745
#	233265
#	246227
#	260000
#
# Disc length: 3635 seconds
#
# Revision: 0
# Processed by: cddbd v1.4PL0 Copyright (c) Steve Scherf et al.
# Submitted via: dBpowerAMP V4.0
#
DISCID=330e3114
DTITLE=Don Williams - The Love Songs
DYEAR=1900
DGENRE=
TTITLE0=Turn Out The Lights (And Love Me Tonight)
TTITLE1=I'll Need Someone To Hold Me (When I Cry)
TTITLE2=Fallin' In Love Again
TTITLE3=We Should Be Together
TTITLE4=My Woman's Love
TTITLE5=Lay Down Beside Me
TTITLE6=Reason To Be
TTITLE7=When I'm With You
TTITLE8=The Ties That You Bind
TTITLE9=Tears Of The Lonely
TTITLE10=Come Home Early
TTITLE11=Tempted
TTITLE12=Don't You Think It's Time
TTITLE13=I'm Getting Good At Missing You
TTITLE14=Loving You For So Long
TTITLE15=I Don't Wanna Let You Go
TTITLE16=Goodbye Isn't Really Good At All
TTITLE17=I Would Like To See You Again
TTITLE18=Missing You Missing Me
TTITLE19=You're The Only One
EXTD=
EXTT0=
EXTT1=
EXTT2=
EXTT3=
EXTT4=
EXTT5=
EXTT6=
EXTT7=
EXTT8=
EXTT9=
EXTT10=
EXTT11=
EXTT12=
EXTT13=
EXTT14=
EXTT15=
EXTT16=
EXTT17=
EXTT18=
EXTT19=
PLAYORDER=
